<svg width="24" height="24" viewBox="0 0 24 24"  xmlns="http://www.w3.org/2000/svg">
<g clip-path="url(#clip0_16_38)">
<path d="M7.5 9.6H9C9.39782 9.6 9.77936 9.47357 10.0607 9.24853C10.342 9.02348 10.5 8.71826 10.5 8.4C10.5 8.08174 10.342 7.77652 10.0607 7.55147C9.77936 7.32643 9.39782 7.2 9 7.2H7.5C7.10218 7.2 6.72064 7.32643 6.43934 7.55147C6.15804 7.77652 6 8.08174 6 8.4C6 8.71826 6.15804 9.02348 6.43934 9.24853C6.72064 9.47357 7.10218 9.6 7.5 9.6ZM7.5 12C7.10218 12 6.72064 12.1264 6.43934 12.3515C6.15804 12.5765 6 12.8817 6 13.2C6 13.5183 6.15804 13.8235 6.43934 14.0485C6.72064 14.2736 7.10218 14.4 7.5 14.4H16.5C16.8978 14.4 17.2794 14.2736 17.5607 14.0485C17.842 13.8235 18 13.5183 18 13.2C18 12.8817 17.842 12.5765 17.5607 12.3515C17.2794 12.1264 16.8978 12 16.5 12H7.5ZM24 8.328C23.9844 8.21776 23.9542 8.10916 23.91 8.004V7.896C23.8379 7.77262 23.7417 7.6592 23.625 7.56L14.625 0.36C14.501 0.266659 14.3592 0.189697 14.205 0.132C14.1602 0.126912 14.1148 0.126912 14.07 0.132C13.9176 0.0620895 13.7493 0.017213 13.575 0H4.5C3.30653 0 2.16193 0.379285 1.31802 1.05442C0.474106 1.72955 0 2.64522 0 3.6V20.4C0 21.3548 0.474106 22.2705 1.31802 22.9456C2.16193 23.6207 3.30653 24 4.5 24H19.5C20.6935 24 21.8381 23.6207 22.682 22.9456C23.5259 22.2705 24 21.3548 24 20.4V8.4C24 8.4 24 8.4 24 8.328ZM15 4.092L18.885 7.2H16.5C16.1022 7.2 15.7206 7.07357 15.4393 6.84853C15.158 6.62348 15 6.31826 15 6V4.092ZM21 20.4C21 20.7183 20.842 21.0235 20.5607 21.2485C20.2794 21.4736 19.8978 21.6 19.5 21.6H4.5C4.10218 21.6 3.72064 21.4736 3.43934 21.2485C3.15804 21.0235 3 20.7183 3 20.4V3.6C3 3.28174 3.15804 2.97652 3.43934 2.75147C3.72064 2.52643 4.10218 2.4 4.5 2.4H12V6C12 6.95478 12.4741 7.87045 13.318 8.54559C14.1619 9.22072 15.3065 9.6 16.5 9.6H21V20.4ZM16.5 16.8H7.5C7.10218 16.8 6.72064 16.9264 6.43934 17.1515C6.15804 17.3765 6 17.6817 6 18C6 18.3183 6.15804 18.6235 6.43934 18.8485C6.72064 19.0736 7.10218 19.2 7.5 19.2H16.5C16.8978 19.2 17.2794 19.0736 17.5607 18.8485C17.842 18.6235 18 18.3183 18 18C18 17.6817 17.842 17.3765 17.5607 17.1515C17.2794 16.9264 16.8978 16.8 16.5 16.8Z" />
</g>
<defs>
<clipPath id="clip0_16_38">
<rect width="24" height="24" />
</clipPath>
</defs>
</svg>
