<svg width="24" height="24" viewBox="0 0 24 24" xmlns="http://www.w3.org/2000/svg">
<path d="M22.6666 6.90023L14.6667 0.875061C13.9333 0.311542 12.9839 0 12 0C11.0161 0 10.0668 0.311542 9.33339 0.875061L1.33345 6.90023C0.909944 7.22563 0.571989 7.62481 0.342086 8.07118C0.112184 8.51756 -0.00439005 9.00089 0.000126391 9.489V19.5004C0.000126391 20.4118 0.421551 21.2859 1.17169 21.9303C1.92183 22.5748 2.93924 22.9368 4.0001 22.9368H20C21.0608 22.9368 22.0783 22.5748 22.8284 21.9303C23.5785 21.2859 24 20.4118 24 19.5004V9.47754C24.0026 8.99136 23.8851 8.51024 23.6552 8.06596C23.4254 7.62168 23.0884 7.22435 22.6666 6.90023ZM14.6667 20.6459H9.33339V14.9185C9.33339 14.6147 9.47387 14.3234 9.72392 14.1086C9.97396 13.8937 10.3131 13.7731 10.6667 13.7731H13.3334C13.687 13.7731 14.0261 13.8937 14.2762 14.1086C14.5262 14.3234 14.6667 14.6147 14.6667 14.9185V20.6459ZM21.3333 19.5004C21.3333 19.8042 21.1928 20.0956 20.9428 20.3104C20.6927 20.5252 20.3536 20.6459 20 20.6459H17.3333V14.9185C17.3333 14.0071 16.9119 13.1331 16.1618 12.4886C15.4116 11.8442 14.3942 11.4821 13.3334 11.4821H10.6667C9.60586 11.4821 8.58845 11.8442 7.83831 12.4886C7.08817 13.1331 6.66675 14.0071 6.66675 14.9185V20.6459H4.0001C3.64648 20.6459 3.30734 20.5252 3.0573 20.3104C2.80725 20.0956 2.66677 19.8042 2.66677 19.5004V9.47754C2.66701 9.3149 2.70756 9.15417 2.78573 9.00604C2.86389 8.85791 2.97788 8.72578 3.1201 8.61844L11.12 2.60472C11.3634 2.42108 11.6762 2.3198 12 2.3198C12.3239 2.3198 12.6367 2.42108 12.88 2.60472L20.88 8.61844C21.0222 8.72578 21.1362 8.85791 21.2144 9.00604C21.2925 9.15417 21.3331 9.3149 21.3333 9.47754V19.5004Z"/>
</svg>
